<svg id="svg" version="1.1" xmlns="http://www.w3.org/2000/svg" xmlns:xlink="http://www.w3.org/1999/xlink" width="400" height="452.3364485981308" viewBox="0, 0, 400,452.3364485981308"><g id="svgg"><path id="path0" d="M102.585 91.700 C 102.481 91.975,102.441 156.280,102.498 234.600 L 102.600 377.000 127.800 377.000 L 153.000 377.000 153.202 259.600 C 153.313 195.030,153.448 142.155,153.502 142.100 C 153.556 142.045,181.635 141.998,215.900 141.995 C 250.165 141.992,278.605 141.881,279.100 141.748 L 280.000 141.507 280.000 116.353 L 280.000 91.200 191.387 91.200 C 120.865 91.200,102.736 91.302,102.585 91.700 M222.400 210.768 C 220.581 211.194,218.123 212.277,217.804 212.794 C 217.666 213.017,217.280 213.200,216.946 213.200 C 215.953 213.200,192.731 236.810,191.730 238.838 C 189.576 243.200,189.529 243.417,189.668 248.528 C 189.878 256.270,189.991 256.443,203.980 270.400 C 215.806 282.199,217.313 283.600,218.185 283.600 C 218.469 283.600,218.926 283.870,219.200 284.200 C 219.474 284.530,220.122 284.800,220.641 284.800 C 221.159 284.800,222.297 285.085,223.168 285.434 C 226.363 286.712,234.656 285.207,237.122 282.900 C 237.417 282.625,237.813 282.400,238.002 282.400 C 238.585 282.400,260.017 260.769,261.361 258.825 C 263.759 255.356,265.419 249.483,264.816 246.600 C 264.633 245.720,264.360 244.370,264.211 243.600 C 263.326 239.037,261.690 236.987,248.540 223.964 C 235.629 211.178,235.030 210.787,228.000 210.570 C 225.690 210.498,223.170 210.587,222.400 210.768 " stroke="none" fill="#dbdbdb" fill-rule="evenodd"></path><path id="path1" d="M176.800 0.400 C 176.800 0.643,175.000 0.800,172.200 0.800 C 168.378 0.800,167.600 0.901,167.600 1.400 C 167.600 1.886,166.954 2.000,164.187 2.000 C 161.523 2.000,160.724 2.132,160.545 2.600 C 160.373 3.047,159.661 3.200,157.757 3.200 C 155.751 3.200,155.200 3.329,155.200 3.800 C 155.200 4.321,151.714 4.743,149.889 4.444 C 149.718 4.416,149.473 4.664,149.346 4.996 C 149.189 5.406,148.557 5.600,147.377 5.600 C 146.281 5.600,145.521 5.813,145.318 6.176 C 145.113 6.541,144.222 6.787,142.877 6.848 C 141.712 6.901,140.633 7.166,140.479 7.436 C 140.326 7.707,139.390 8.002,138.400 8.094 C 137.300 8.195,136.639 8.443,136.700 8.730 C 136.758 9.001,136.331 9.200,135.694 9.200 C 135.086 9.200,133.916 9.560,133.095 10.000 C 132.274 10.440,131.466 10.779,131.301 10.753 C 130.198 10.578,129.200 10.886,129.200 11.400 C 129.200 11.801,128.799 12.000,127.987 12.000 C 127.279 12.000,126.679 12.249,126.545 12.600 C 126.404 12.967,125.798 13.200,124.986 13.200 C 124.255 13.200,123.387 13.470,123.057 13.800 C 122.727 14.130,121.994 14.400,121.429 14.400 C 120.781 14.400,120.400 14.622,120.400 15.000 C 120.400 15.395,120.005 15.600,119.243 15.600 C 118.583 15.600,117.987 15.858,117.855 16.200 C 117.729 16.530,117.139 16.800,116.544 16.800 C 115.949 16.800,115.165 17.069,114.801 17.399 C 114.438 17.728,113.663 18.037,113.080 18.085 C 112.496 18.133,111.931 18.404,111.822 18.686 C 111.714 18.969,111.349 19.200,111.013 19.200 C 110.676 19.200,110.400 19.374,110.400 19.587 C 110.400 19.801,110.130 19.871,109.800 19.745 C 109.470 19.618,109.200 19.714,109.200 19.957 C 109.200 20.201,108.930 20.400,108.600 20.400 C 108.270 20.400,108.000 20.591,108.000 20.824 C 108.000 21.057,107.819 21.135,107.597 20.998 C 107.376 20.861,107.101 20.992,106.988 21.288 C 106.874 21.585,106.297 21.867,105.705 21.916 C 105.113 21.965,104.478 22.274,104.295 22.603 C 104.111 22.931,103.699 23.200,103.380 23.200 C 103.061 23.200,102.800 23.470,102.800 23.800 C 102.800 24.200,102.400 24.400,101.600 24.400 C 100.800 24.400,100.400 24.600,100.400 25.000 C 100.400 25.370,100.024 25.600,99.420 25.600 C 98.881 25.600,98.284 25.879,98.093 26.219 C 97.903 26.560,97.354 26.868,96.873 26.904 C 96.393 26.941,96.000 27.116,96.000 27.295 C 96.000 27.474,95.550 27.791,95.000 28.000 C 94.450 28.209,94.000 28.545,94.000 28.747 C 94.000 28.948,93.581 29.218,93.069 29.347 C 92.557 29.476,91.633 30.048,91.017 30.619 C 90.401 31.190,89.560 31.683,89.148 31.714 C 88.737 31.745,88.298 32.092,88.173 32.485 C 88.048 32.878,87.688 33.200,87.373 33.200 C 87.058 33.200,86.800 33.459,86.800 33.775 C 86.800 34.131,86.305 34.397,85.500 34.475 C 84.722 34.550,84.240 34.801,84.300 35.100 C 84.355 35.375,84.040 35.600,83.600 35.600 C 83.156 35.600,82.800 35.867,82.800 36.200 C 82.800 36.530,82.462 36.800,82.049 36.800 C 81.636 36.800,81.074 37.070,80.800 37.400 C 80.526 37.730,80.054 38.000,79.751 38.000 C 79.448 38.000,79.200 38.270,79.200 38.600 C 79.200 38.930,78.930 39.200,78.600 39.200 C 78.270 39.200,78.000 39.426,78.000 39.702 C 78.000 39.979,77.479 40.435,76.843 40.717 C 76.206 40.999,75.227 41.654,74.667 42.173 C 74.107 42.692,73.565 43.031,73.461 42.928 C 73.358 42.824,73.154 43.113,73.010 43.570 C 72.865 44.026,72.488 44.400,72.173 44.400 C 71.858 44.400,71.600 44.670,71.600 45.000 C 71.600 45.330,71.330 45.600,71.000 45.600 C 70.670 45.600,70.400 45.870,70.400 46.200 C 70.400 46.530,70.080 46.800,69.689 46.800 C 69.298 46.800,68.387 47.340,67.664 48.000 C 66.942 48.660,66.182 49.200,65.975 49.200 C 65.769 49.200,65.600 49.470,65.600 49.800 C 65.600 50.130,65.330 50.400,65.000 50.400 C 64.670 50.400,64.400 50.670,64.400 51.000 C 64.400 51.330,64.192 51.600,63.938 51.600 C 63.393 51.600,60.400 54.660,60.400 55.217 C 60.400 55.428,60.130 55.600,59.800 55.600 C 59.470 55.600,59.200 55.870,59.200 56.200 C 59.200 56.530,58.930 56.800,58.600 56.800 C 58.270 56.800,58.000 57.070,58.000 57.400 C 58.000 57.730,57.730 58.000,57.400 58.000 C 57.070 58.000,56.800 58.270,56.800 58.600 C 56.800 58.930,56.530 59.200,56.200 59.200 C 55.870 59.200,55.600 59.470,55.600 59.800 C 55.600 60.130,55.330 60.400,55.000 60.400 C 54.670 60.400,54.400 60.670,54.400 61.000 C 54.400 61.330,54.220 61.600,54.000 61.600 C 53.491 61.600,49.200 65.906,49.200 66.418 C 49.200 66.628,48.930 66.800,48.600 66.800 C 48.270 66.800,48.000 67.051,48.000 67.357 C 48.000 67.664,47.728 68.019,47.396 68.146 C 47.064 68.273,46.816 68.518,46.844 68.689 C 47.003 69.661,46.725 70.400,46.200 70.400 C 45.870 70.400,45.600 70.670,45.600 71.000 C 45.600 71.330,45.330 71.600,45.000 71.600 C 44.670 71.600,44.400 71.870,44.400 72.200 C 44.400 72.530,44.151 72.800,43.847 72.800 C 43.542 72.800,43.194 73.178,43.074 73.640 C 42.953 74.103,42.662 74.362,42.427 74.217 C 42.192 74.072,42.000 74.143,42.000 74.376 C 42.000 74.609,42.000 74.890,42.000 75.000 C 42.000 75.110,41.640 75.560,41.200 76.000 C 40.760 76.440,40.400 77.070,40.400 77.400 C 40.400 77.730,40.130 78.000,39.800 78.000 C 39.470 78.000,39.200 78.270,39.200 78.600 C 39.200 78.930,38.930 79.200,38.600 79.200 C 38.270 79.200,38.000 79.448,38.000 79.751 C 38.000 80.054,37.730 80.526,37.400 80.800 C 37.070 81.074,36.800 81.636,36.800 82.049 C 36.800 82.462,36.530 82.800,36.200 82.800 C 35.867 82.800,35.600 83.156,35.600 83.600 C 35.600 84.040,35.375 84.355,35.100 84.300 C 34.817 84.243,34.544 84.687,34.471 85.324 C 34.400 85.942,34.085 86.546,33.771 86.666 C 33.457 86.787,33.200 87.136,33.200 87.443 C 33.200 87.749,32.930 88.000,32.600 88.000 C 32.270 88.000,32.000 88.345,32.000 88.766 C 32.000 89.187,31.370 90.180,30.600 90.973 C 29.830 91.766,29.200 92.752,29.200 93.164 C 29.200 93.577,28.930 94.018,28.600 94.145 C 28.270 94.271,28.000 94.746,28.000 95.200 C 28.000 95.654,27.730 96.129,27.400 96.255 C 27.070 96.382,26.800 96.714,26.800 96.994 C 26.800 97.273,26.530 97.726,26.200 98.000 C 25.870 98.274,25.600 98.926,25.600 99.449 C 25.600 100.028,25.365 100.400,25.000 100.400 C 24.600 100.400,24.400 100.800,24.400 101.600 C 24.400 102.400,24.200 102.800,23.800 102.800 C 23.470 102.800,23.200 103.141,23.200 103.557 C 23.200 103.974,22.930 104.418,22.600 104.545 C 22.270 104.671,22.000 105.157,22.000 105.624 C 22.000 106.092,21.640 106.931,21.200 107.491 C 20.760 108.050,20.400 108.732,20.400 109.005 C 20.400 109.278,20.130 109.726,19.800 110.000 C 19.470 110.274,19.200 110.847,19.200 111.273 C 19.200 111.699,19.040 111.949,18.845 111.828 C 18.456 111.587,18.014 112.888,18.005 114.300 C 18.002 114.831,17.754 115.200,17.400 115.200 C 17.005 115.200,16.800 115.595,16.800 116.357 C 16.800 117.017,16.542 117.613,16.200 117.745 C 15.870 117.871,15.600 118.436,15.600 119.000 C 15.600 119.564,15.330 120.129,15.000 120.255 C 14.630 120.397,14.400 121.005,14.400 121.843 C 14.400 122.715,14.221 123.164,13.900 123.100 C 13.583 123.037,13.353 123.584,13.270 124.600 C 13.199 125.480,12.884 126.344,12.570 126.520 C 12.257 126.696,12.000 127.371,12.000 128.020 C 12.000 128.669,11.832 129.200,11.627 129.200 C 11.183 129.200,10.675 130.604,10.613 132.000 C 10.589 132.550,10.381 132.965,10.151 132.922 C 9.921 132.879,9.706 133.059,9.673 133.322 C 9.446 135.134,9.032 136.637,8.701 136.851 C 8.488 136.988,8.217 137.949,8.101 138.985 C 7.982 140.037,7.648 140.960,7.344 141.077 C 6.990 141.213,6.800 141.955,6.800 143.200 C 6.800 144.533,6.618 145.184,6.200 145.345 C 5.767 145.511,5.600 146.190,5.600 147.787 C 5.600 149.487,5.461 150.000,5.000 150.000 C 4.529 150.000,4.400 150.551,4.400 152.557 C 4.400 154.461,4.247 155.173,3.800 155.345 C 3.347 155.519,3.200 156.252,3.200 158.345 C 3.200 160.401,3.050 161.172,2.617 161.338 C 2.191 161.502,2.003 162.399,1.917 164.681 C 1.840 166.747,1.646 167.771,1.344 167.715 C 1.025 167.655,0.869 169.101,0.826 172.515 C 0.792 175.202,0.592 177.460,0.382 177.533 C 0.140 177.618,0.000 227.998,0.000 314.833 L 0.000 452.000 111.200 452.000 C 185.067 452.000,222.400 451.866,222.400 451.600 C 222.400 451.355,224.333 451.200,227.400 451.200 C 231.578 451.200,232.400 451.101,232.400 450.600 C 232.400 450.117,233.017 450.000,235.551 450.000 C 237.864 450.000,238.834 449.840,239.200 449.400 C 239.540 448.991,240.449 448.800,242.062 448.800 C 243.793 448.800,244.487 448.640,244.655 448.200 C 244.826 447.755,245.533 447.600,247.394 447.600 C 249.135 447.600,250.054 447.417,250.400 447.000 C 250.718 446.617,251.603 446.400,252.849 446.400 C 254.317 446.400,254.800 446.251,254.800 445.800 C 254.800 445.339,255.313 445.200,257.013 445.200 C 258.610 445.200,259.289 445.033,259.455 444.600 C 259.606 444.208,260.229 444.000,261.255 444.000 C 262.221 444.000,262.907 443.788,263.037 443.448 C 263.155 443.140,264.118 442.781,265.224 442.635 C 266.311 442.490,267.200 442.199,267.200 441.986 C 267.200 441.774,267.740 441.600,268.400 441.600 C 269.067 441.600,269.956 441.244,270.400 440.800 C 270.844 440.356,271.733 440.000,272.400 440.000 C 273.200 440.000,273.600 439.800,273.600 439.400 C 273.600 438.983,274.019 438.800,274.971 438.800 C 275.726 438.800,276.613 438.530,276.943 438.200 C 277.273 437.870,278.006 437.600,278.571 437.600 C 279.219 437.600,279.600 437.378,279.600 437.000 C 279.600 436.599,280.001 436.400,280.813 436.400 C 281.521 436.400,282.121 436.151,282.255 435.800 C 282.385 435.463,282.980 435.200,283.614 435.200 C 284.235 435.200,285.004 434.939,285.323 434.620 C 285.642 434.301,286.419 433.964,287.051 433.871 C 287.683 433.778,288.155 433.499,288.100 433.251 C 288.045 433.003,288.437 432.800,288.971 432.800 C 289.506 432.800,290.204 432.539,290.523 432.220 C 290.842 431.901,291.575 431.521,292.152 431.376 C 292.728 431.232,293.200 430.953,293.200 430.757 C 293.200 430.560,293.436 430.400,293.724 430.400 C 294.011 430.400,294.596 430.117,295.024 429.770 C 295.451 429.424,295.547 429.272,295.238 429.432 C 294.869 429.624,294.774 429.565,294.962 429.262 C 295.119 429.008,295.687 428.800,296.224 428.800 C 296.825 428.800,297.200 428.569,297.200 428.200 C 297.200 427.800,297.600 427.600,298.400 427.600 C 299.200 427.600,299.600 427.400,299.600 427.000 C 299.600 426.600,300.000 426.400,300.800 426.400 C 301.600 426.400,302.000 426.200,302.000 425.800 C 302.000 425.425,302.379 425.200,303.013 425.200 C 303.569 425.200,304.129 424.930,304.255 424.600 C 304.382 424.270,304.826 424.000,305.243 424.000 C 305.659 424.000,306.000 423.730,306.000 423.400 C 306.000 423.025,306.379 422.800,307.013 422.800 C 307.569 422.800,308.129 422.530,308.255 422.200 C 308.382 421.870,308.736 421.600,309.043 421.600 C 309.349 421.600,309.600 421.330,309.600 421.000 C 309.600 420.670,309.947 420.400,310.371 420.400 C 310.796 420.400,311.413 420.130,311.743 419.800 C 312.073 419.470,312.536 419.200,312.771 419.200 C 313.007 419.200,313.200 418.851,313.200 418.425 C 313.200 417.844,313.524 417.619,314.500 417.525 C 315.278 417.450,315.760 417.199,315.700 416.900 C 315.645 416.625,315.960 416.400,316.400 416.400 C 316.844 416.400,317.200 416.133,317.200 415.800 C 317.200 415.470,317.541 415.200,317.957 415.200 C 318.374 415.200,318.818 414.930,318.945 414.600 C 319.071 414.270,319.541 414.000,319.987 414.000 C 320.443 414.000,320.800 413.736,320.800 413.400 C 320.800 413.070,321.070 412.800,321.400 412.800 C 321.730 412.800,322.000 412.550,322.000 412.243 C 322.000 411.937,322.450 411.574,323.000 411.436 C 323.550 411.298,324.000 411.008,324.000 410.792 C 324.000 410.577,324.187 410.400,324.416 410.400 C 325.105 410.400,327.200 408.688,327.200 408.125 C 327.200 407.836,327.470 407.600,327.800 407.600 C 328.130 407.600,328.400 407.330,328.400 407.000 C 328.400 406.670,328.670 406.400,329.000 406.400 C 329.330 406.400,329.600 406.130,329.600 405.800 C 329.600 405.425,329.979 405.200,330.613 405.200 C 331.169 405.200,331.729 404.930,331.855 404.600 C 331.982 404.270,332.336 404.000,332.643 404.000 C 332.949 404.000,333.200 403.730,333.200 403.400 C 333.200 403.070,333.470 402.800,333.800 402.800 C 334.130 402.800,334.400 402.530,334.400 402.200 C 334.400 401.870,334.633 401.600,334.919 401.600 C 335.204 401.600,335.879 401.068,336.419 400.417 C 336.958 399.766,337.625 399.226,337.900 399.217 C 338.175 399.208,338.400 398.949,338.400 398.643 C 338.400 398.336,338.670 397.982,339.000 397.855 C 339.330 397.729,339.600 397.349,339.600 397.013 C 339.600 396.676,339.870 396.400,340.200 396.400 C 340.530 396.400,340.800 396.130,340.800 395.800 C 340.800 395.470,341.070 395.200,341.400 395.200 C 341.730 395.200,342.000 394.930,342.000 394.600 C 342.000 394.270,342.270 394.000,342.600 394.000 C 342.930 394.000,343.200 393.730,343.200 393.400 C 343.200 393.070,343.470 392.800,343.800 392.800 C 344.130 392.800,344.400 392.530,344.400 392.200 C 344.400 391.870,344.670 391.600,345.000 391.600 C 345.330 391.600,345.600 391.330,345.600 391.000 C 345.600 390.670,345.807 390.400,346.060 390.400 C 346.611 390.400,350.800 386.150,350.800 385.591 C 350.800 385.376,351.070 385.200,351.400 385.200 C 351.730 385.200,352.000 384.949,352.000 384.643 C 352.000 384.336,352.270 383.982,352.600 383.855 C 352.930 383.729,353.200 383.169,353.200 382.613 C 353.200 381.979,353.425 381.600,353.800 381.600 C 354.130 381.600,354.400 381.330,354.400 381.000 C 354.400 380.670,354.670 380.400,355.000 380.400 C 355.330 380.400,355.600 380.151,355.600 379.847 C 355.600 379.542,355.937 379.205,356.349 379.098 C 356.760 378.990,357.425 378.159,357.826 377.251 C 358.226 376.343,358.789 375.600,359.077 375.600 C 359.365 375.600,359.600 375.240,359.600 374.800 C 359.600 374.356,359.867 374.000,360.200 374.000 C 360.530 374.000,360.800 373.730,360.800 373.400 C 360.800 373.070,361.025 372.798,361.300 372.796 C 361.575 372.794,362.155 371.984,362.590 370.996 C 363.024 370.008,363.609 369.200,363.890 369.200 C 364.170 369.200,364.400 368.949,364.400 368.643 C 364.400 368.336,364.670 367.982,365.000 367.855 C 365.330 367.729,365.600 367.169,365.600 366.613 C 365.600 365.979,365.825 365.600,366.200 365.600 C 366.530 365.600,366.800 365.370,366.800 365.089 C 366.800 364.808,367.160 364.270,367.600 363.893 C 368.040 363.516,368.400 362.846,368.400 362.404 C 368.400 361.956,368.666 361.600,369.000 361.600 C 369.330 361.600,369.600 361.259,369.600 360.843 C 369.600 360.426,369.870 359.982,370.200 359.855 C 370.530 359.729,370.800 359.259,370.800 358.813 C 370.800 358.366,370.970 358.000,371.178 358.000 C 371.539 358.000,372.282 356.844,373.169 354.900 C 373.395 354.405,373.765 354.000,373.990 354.000 C 374.216 354.000,374.400 353.460,374.400 352.800 C 374.400 352.000,374.600 351.600,375.000 351.600 C 375.400 351.600,375.600 351.200,375.600 350.400 C 375.600 349.600,375.800 349.200,376.200 349.200 C 376.600 349.200,376.800 348.800,376.800 348.000 C 376.800 347.200,377.000 346.800,377.400 346.800 C 377.733 346.800,378.000 346.444,378.000 346.000 C 378.000 345.560,378.169 345.200,378.375 345.200 C 378.922 345.200,382.000 338.877,382.000 337.754 C 382.000 337.173,382.234 336.800,382.600 336.800 C 383.000 336.800,383.200 336.400,383.200 335.600 C 383.200 334.800,383.400 334.400,383.800 334.400 C 384.201 334.400,384.400 333.999,384.400 333.187 C 384.400 332.479,384.649 331.879,385.000 331.745 C 385.365 331.605,385.600 330.999,385.600 330.200 C 385.600 329.401,385.835 328.795,386.200 328.655 C 386.577 328.511,386.800 327.899,386.800 327.013 C 386.800 326.024,386.980 325.600,387.400 325.600 C 387.844 325.600,388.000 325.133,388.000 323.800 C 388.000 322.477,388.157 322.000,388.592 322.000 C 388.918 322.000,389.290 321.505,389.419 320.900 C 389.547 320.295,389.911 319.322,390.226 318.738 C 390.542 318.154,390.806 317.254,390.813 316.738 C 390.820 316.222,391.090 315.451,391.413 315.024 C 391.736 314.596,392.000 313.674,392.000 312.973 C 392.000 312.272,392.270 311.474,392.600 311.200 C 392.983 310.882,393.200 309.997,393.200 308.751 C 393.200 307.283,393.349 306.800,393.800 306.800 C 394.267 306.800,394.400 306.267,394.400 304.400 C 394.400 302.533,394.533 302.000,395.000 302.000 C 395.472 302.000,395.600 301.444,395.600 299.400 C 395.600 297.356,395.728 296.800,396.200 296.800 C 396.680 296.800,396.800 296.200,396.800 293.800 C 396.800 291.400,396.920 290.800,397.400 290.800 C 397.886 290.800,398.000 290.156,398.000 287.400 C 398.000 284.893,398.131 284.026,398.500 284.100 C 398.873 284.175,399.028 282.960,399.112 279.300 C 399.177 276.481,399.389 274.400,399.612 274.400 C 399.860 274.400,400.000 257.188,400.000 226.600 C 400.000 195.000,399.864 178.800,399.600 178.800 C 399.355 178.800,399.200 176.867,399.200 173.800 C 399.200 169.622,399.101 168.800,398.600 168.800 C 398.114 168.800,398.000 168.160,398.000 165.443 C 398.000 162.828,397.867 162.035,397.400 161.855 C 396.960 161.686,396.800 160.992,396.800 159.245 C 396.800 156.752,396.516 155.481,396.026 155.784 C 395.866 155.883,395.697 155.027,395.649 153.882 C 395.526 150.916,395.391 150.264,394.865 150.088 C 394.607 150.002,394.400 149.160,394.400 148.195 C 394.400 147.216,394.149 146.206,393.824 145.881 C 393.507 145.564,393.192 144.427,393.124 143.353 C 393.042 142.053,392.833 141.433,392.500 141.500 C 392.153 141.569,392.000 140.987,392.000 139.600 C 392.000 138.089,391.853 137.600,391.400 137.600 C 391.011 137.600,390.782 137.178,390.750 136.400 C 390.673 134.548,390.632 134.391,390.147 134.085 C 389.897 133.928,389.591 132.990,389.467 132.000 C 389.342 131.010,389.232 130.155,389.220 130.100 C 389.209 130.045,388.930 130.000,388.600 130.000 C 388.204 130.000,388.000 129.604,388.000 128.833 C 388.000 127.343,387.618 126.342,387.158 126.626 C 386.961 126.748,386.800 126.207,386.800 125.424 C 386.800 124.425,386.621 124.000,386.200 124.000 C 385.756 124.000,385.600 123.533,385.600 122.200 C 385.600 120.867,385.444 120.400,385.000 120.400 C 384.605 120.400,384.400 120.005,384.400 119.243 C 384.400 118.583,384.142 117.987,383.800 117.855 C 383.470 117.729,383.200 117.164,383.200 116.600 C 383.200 116.036,382.930 115.471,382.600 115.345 C 382.258 115.213,382.000 114.617,382.000 113.957 C 382.000 113.195,381.795 112.800,381.400 112.800 C 381.000 112.800,380.800 112.400,380.800 111.600 C 380.800 110.800,380.600 110.400,380.200 110.400 C 379.796 110.400,379.600 109.996,379.600 109.163 C 379.600 108.262,379.383 107.868,378.800 107.716 C 378.233 107.568,378.000 107.170,378.000 106.353 C 378.000 105.595,377.795 105.200,377.400 105.200 C 377.000 105.200,376.800 104.800,376.800 104.000 C 376.800 103.200,376.600 102.800,376.200 102.800 C 375.800 102.800,375.600 102.400,375.600 101.600 C 375.600 100.800,375.400 100.400,375.000 100.400 C 374.625 100.400,374.400 100.021,374.400 99.387 C 374.400 98.831,374.130 98.271,373.800 98.145 C 373.470 98.018,373.200 97.658,373.200 97.345 C 373.200 97.031,372.930 96.671,372.600 96.545 C 372.258 96.413,372.000 95.817,372.000 95.157 C 372.000 94.395,371.795 94.000,371.400 94.000 C 371.070 94.000,370.800 93.752,370.800 93.449 C 370.800 93.146,370.530 92.674,370.200 92.400 C 369.870 92.126,369.600 91.564,369.600 91.151 C 369.600 90.738,369.344 90.400,369.032 90.400 C 368.719 90.400,368.345 89.860,368.200 89.200 C 368.055 88.540,367.681 88.000,367.368 88.000 C 367.056 88.000,366.800 87.640,366.800 87.200 C 366.800 86.756,366.533 86.400,366.200 86.400 C 365.867 86.400,365.600 86.044,365.600 85.600 C 365.600 85.160,365.416 84.800,365.190 84.800 C 364.965 84.800,364.609 84.350,364.400 83.800 C 364.191 83.250,363.835 82.800,363.610 82.800 C 363.384 82.800,363.200 82.530,363.200 82.200 C 363.200 81.870,362.930 81.600,362.600 81.600 C 362.200 81.600,362.000 81.200,362.000 80.400 C 362.000 79.600,361.800 79.200,361.400 79.200 C 361.070 79.200,360.800 78.930,360.800 78.600 C 360.800 78.270,360.551 78.000,360.247 78.000 C 359.942 78.000,359.594 77.622,359.474 77.160 C 359.353 76.697,359.062 76.438,358.827 76.583 C 358.592 76.728,358.400 76.579,358.400 76.251 C 358.400 75.391,356.690 72.837,356.100 72.817 C 355.825 72.808,355.600 72.530,355.600 72.200 C 355.600 71.870,355.330 71.600,355.000 71.600 C 354.670 71.600,354.400 71.330,354.400 71.000 C 354.400 70.670,354.130 70.400,353.800 70.400 C 353.470 70.400,353.200 70.130,353.200 69.800 C 353.200 69.470,352.930 69.200,352.600 69.200 C 352.234 69.200,352.000 68.827,352.000 68.243 C 352.000 67.716,351.730 67.182,351.400 67.055 C 351.070 66.929,350.800 66.549,350.800 66.213 C 350.800 65.876,350.551 65.600,350.247 65.600 C 349.942 65.600,349.594 65.222,349.474 64.760 C 349.353 64.297,349.062 64.038,348.827 64.183 C 348.592 64.328,348.400 64.285,348.400 64.086 C 348.400 63.510,346.623 61.600,346.087 61.600 C 345.819 61.600,345.600 61.330,345.600 61.000 C 345.600 60.670,345.330 60.400,345.000 60.400 C 344.670 60.400,344.400 60.130,344.400 59.800 C 344.400 59.470,344.130 59.200,343.800 59.200 C 343.470 59.200,343.200 58.930,343.200 58.600 C 343.200 58.270,342.930 58.000,342.600 58.000 C 342.270 58.000,342.000 57.730,342.000 57.400 C 342.000 57.070,341.730 56.800,341.400 56.800 C 341.070 56.800,340.800 56.530,340.800 56.200 C 340.800 55.870,340.551 55.600,340.247 55.600 C 339.942 55.600,339.594 55.222,339.474 54.760 C 339.353 54.297,339.062 54.038,338.827 54.183 C 338.592 54.328,338.400 54.229,338.400 53.962 C 338.400 53.518,335.409 50.400,334.983 50.400 C 334.630 50.400,333.200 48.796,333.200 48.400 C 333.200 48.180,332.840 48.000,332.400 48.000 C 331.960 48.000,331.600 47.823,331.600 47.608 C 331.600 47.392,331.150 47.102,330.600 46.964 C 330.050 46.826,329.600 46.463,329.600 46.157 C 329.600 45.850,329.330 45.600,329.000 45.600 C 328.670 45.600,328.400 45.330,328.400 45.000 C 328.400 44.670,328.130 44.400,327.800 44.400 C 327.470 44.400,327.200 44.130,327.200 43.800 C 327.200 43.470,327.048 43.200,326.861 43.200 C 326.675 43.200,326.107 42.840,325.600 42.400 C 325.093 41.960,324.345 41.600,323.939 41.600 C 323.532 41.600,323.200 41.330,323.200 41.000 C 323.200 40.670,322.930 40.400,322.600 40.400 C 322.270 40.400,322.000 40.130,322.000 39.800 C 322.000 39.470,321.749 39.200,321.443 39.200 C 321.136 39.200,320.782 38.930,320.655 38.600 C 320.529 38.270,320.149 38.000,319.813 38.000 C 319.476 38.000,319.200 37.823,319.200 37.608 C 319.200 37.392,318.750 37.102,318.200 36.964 C 317.650 36.826,317.200 36.463,317.200 36.157 C 317.200 35.850,316.924 35.600,316.587 35.600 C 316.251 35.600,315.871 35.330,315.745 35.000 C 315.613 34.658,315.017 34.400,314.357 34.400 C 313.595 34.400,313.200 34.195,313.200 33.800 C 313.200 33.470,312.930 33.200,312.600 33.200 C 312.270 33.200,312.000 32.925,312.000 32.590 C 312.000 32.232,311.504 31.881,310.800 31.740 C 310.140 31.608,309.600 31.252,309.600 30.950 C 309.600 30.647,309.407 30.400,309.171 30.400 C 308.936 30.400,308.473 30.130,308.143 29.800 C 307.813 29.470,307.196 29.200,306.771 29.200 C 306.347 29.200,306.000 28.930,306.000 28.600 C 306.000 28.270,305.662 28.000,305.249 28.000 C 304.836 28.000,304.274 27.730,304.000 27.400 C 303.726 27.070,303.183 26.800,302.794 26.800 C 302.404 26.800,301.982 26.530,301.855 26.200 C 301.729 25.870,301.169 25.600,300.613 25.600 C 299.979 25.600,299.600 25.375,299.600 25.000 C 299.600 24.600,299.200 24.400,298.400 24.400 C 297.600 24.400,297.200 24.200,297.200 23.800 C 297.200 23.400,296.800 23.200,296.000 23.200 C 295.200 23.200,294.800 23.000,294.800 22.600 C 294.800 22.270,294.449 22.000,294.020 22.000 C 293.591 22.000,293.096 21.753,292.920 21.452 C 292.744 21.151,291.569 20.419,290.308 19.827 C 289.047 19.234,287.912 18.581,287.784 18.375 C 287.657 18.169,286.933 18.000,286.176 18.000 C 285.220 18.000,284.800 17.817,284.800 17.400 C 284.800 16.999,284.399 16.800,283.587 16.800 C 282.879 16.800,282.279 16.551,282.145 16.200 C 282.013 15.858,281.417 15.600,280.757 15.600 C 279.995 15.600,279.600 15.395,279.600 15.000 C 279.600 14.605,279.205 14.400,278.443 14.400 C 277.783 14.400,277.187 14.142,277.055 13.800 C 276.903 13.404,276.277 13.200,275.213 13.200 C 274.046 13.200,273.600 13.034,273.600 12.600 C 273.600 12.196,273.196 12.000,272.363 12.000 C 271.683 12.000,270.665 11.637,270.100 11.193 C 269.496 10.718,268.770 10.482,268.335 10.621 C 267.876 10.766,267.508 10.625,267.363 10.247 C 267.228 9.897,266.385 9.527,265.377 9.376 C 264.414 9.231,263.418 8.863,263.164 8.557 C 262.910 8.250,262.026 8.000,261.200 8.000 C 260.353 8.000,259.481 7.738,259.200 7.400 C 258.882 7.017,257.997 6.800,256.751 6.800 C 255.283 6.800,254.800 6.651,254.800 6.200 C 254.800 5.749,254.317 5.600,252.849 5.600 C 251.603 5.600,250.718 5.383,250.400 5.000 C 250.053 4.581,249.131 4.400,247.351 4.400 C 245.350 4.400,244.800 4.271,244.800 3.800 C 244.800 3.329,244.249 3.200,242.243 3.200 C 240.339 3.200,239.627 3.047,239.455 2.600 C 239.276 2.132,238.477 2.000,235.813 2.000 C 233.046 2.000,232.400 1.886,232.400 1.400 C 232.400 0.899,231.578 0.800,227.400 0.800 C 224.333 0.800,222.400 0.645,222.400 0.400 C 222.400 0.138,214.533 0.000,199.600 0.000 C 184.667 0.000,176.800 0.138,176.800 0.400 M280.320 90.480 C 281.014 91.174,281.014 142.026,280.320 142.720 C 279.951 143.089,265.476 143.200,217.600 143.200 C 169.724 143.200,155.249 143.311,154.880 143.680 C 154.509 144.051,154.400 170.576,154.400 260.631 C 154.400 358.402,154.313 377.175,153.855 377.554 C 153.460 377.882,146.247 377.978,127.555 377.903 L 101.800 377.800 101.699 234.442 C 101.625 128.795,101.717 90.941,102.048 90.542 C 102.674 89.787,279.566 89.726,280.320 90.480 M229.400 209.191 C 233.725 210.153,237.200 211.439,237.200 212.077 C 237.200 212.255,237.490 212.400,237.843 212.400 C 238.839 212.400,261.796 235.476,262.799 237.485 C 263.266 238.418,263.816 239.287,264.024 239.415 C 264.231 239.543,264.401 239.952,264.402 240.324 C 264.404 240.696,264.711 241.540,265.085 242.200 C 265.905 243.646,266.111 252.289,265.349 253.239 C 265.101 253.547,264.769 254.250,264.612 254.800 C 263.644 258.184,262.436 259.618,250.427 271.645 C 243.702 278.379,237.758 284.028,237.219 284.198 C 236.679 284.367,235.991 284.752,235.690 285.053 C 235.389 285.354,234.816 285.600,234.417 285.600 C 234.018 285.600,233.176 285.869,232.546 286.198 C 230.941 287.035,222.878 287.046,221.776 286.213 C 221.349 285.890,220.691 285.620,220.312 285.613 C 219.637 285.600,216.727 284.227,215.654 283.414 C 214.243 282.344,192.812 260.808,191.758 259.400 C 188.657 255.256,187.100 247.729,188.600 244.138 C 188.930 243.349,189.200 242.309,189.200 241.828 C 189.200 241.347,189.464 240.604,189.787 240.176 C 190.110 239.749,190.380 239.079,190.387 238.687 C 190.394 238.296,190.670 237.871,191.000 237.745 C 191.330 237.618,191.600 237.338,191.600 237.121 C 191.600 236.611,191.995 236.195,203.805 224.288 C 216.011 211.981,218.492 210.000,221.698 210.000 C 222.216 210.000,222.811 209.834,223.020 209.631 C 223.763 208.909,227.100 208.679,229.400 209.191 " stroke="none" fill="#9c0404" fill-rule="evenodd"></path><path id="path2" d="M102.048 90.542 C 101.717 90.941,101.625 128.795,101.699 234.442 L 101.800 377.800 127.555 377.903 C 146.247 377.978,153.460 377.882,153.855 377.554 C 154.313 377.175,154.400 358.402,154.400 260.631 C 154.400 170.576,154.509 144.051,154.880 143.680 C 155.249 143.311,169.724 143.200,217.600 143.200 C 265.476 143.200,279.951 143.089,280.320 142.720 C 281.014 142.026,281.014 91.174,280.320 90.480 C 279.566 89.726,102.674 89.787,102.048 90.542 M280.303 116.155 C 280.378 134.699,280.282 141.860,279.954 142.255 C 279.576 142.711,269.278 142.800,217.231 142.800 C 169.331 142.800,154.849 142.911,154.480 143.280 C 154.109 143.651,154.000 170.176,154.000 260.231 C 154.000 358.007,153.913 376.775,153.455 377.154 C 153.060 377.482,145.951 377.578,127.555 377.503 L 102.200 377.400 102.098 234.400 C 102.041 155.750,102.081 91.175,102.185 90.899 C 102.337 90.500,120.368 90.419,191.288 90.499 L 280.200 90.600 280.303 116.155 M224.600 209.091 C 223.940 209.185,223.220 209.448,223.000 209.676 C 222.726 209.960,222.895 210.001,223.536 209.807 C 224.984 209.368,229.670 209.464,230.926 209.957 C 231.545 210.201,232.445 210.382,232.926 210.359 C 233.525 210.331,233.359 210.198,232.400 209.938 C 228.333 208.833,227.241 208.715,224.600 209.091 M218.800 210.867 C 216.050 212.147,198.145 229.086,193.290 235.000 C 192.378 236.111,200.020 228.628,207.318 221.263 C 215.149 213.361,218.204 211.040,221.800 210.265 C 222.431 210.129,222.389 210.086,221.600 210.061 C 221.050 210.044,219.790 210.406,218.800 210.867 M234.576 210.975 C 235.004 211.319,235.500 211.600,235.681 211.600 C 236.655 211.600,240.935 215.268,246.700 221.045 C 250.275 224.627,253.200 227.431,253.200 227.277 C 253.200 226.699,238.421 212.400,237.823 212.400 C 237.481 212.400,237.200 212.238,237.200 212.039 C 237.200 211.733,236.472 211.360,234.200 210.501 C 233.980 210.418,234.149 210.631,234.576 210.975 M257.405 231.818 C 259.070 233.477,261.055 235.651,261.816 236.648 C 263.284 238.571,263.660 238.699,262.513 236.886 C 261.670 235.553,255.144 228.800,254.699 228.800 C 254.522 228.800,255.740 230.158,257.405 231.818 M190.538 238.217 C 190.178 239.155,190.567 239.266,191.119 238.382 C 191.428 237.887,191.454 237.600,191.191 237.600 C 190.962 237.600,190.668 237.878,190.538 238.217 M263.656 239.745 C 263.939 240.375,264.242 240.673,264.331 240.406 C 264.420 240.140,264.189 239.624,263.818 239.261 C 263.186 238.642,263.176 238.673,263.656 239.745 M189.607 240.387 C 189.355 240.857,189.230 241.547,189.328 241.921 C 189.469 242.454,189.517 242.424,189.554 241.780 C 189.579 241.329,189.813 240.747,190.073 240.487 C 190.334 240.226,190.438 239.905,190.306 239.772 C 190.173 239.640,189.859 239.916,189.607 240.387 M264.402 241.450 C 264.401 241.697,264.670 242.665,265.000 243.600 C 265.753 245.735,265.747 250.494,264.988 252.600 C 264.214 254.750,264.255 255.264,265.085 253.800 C 265.617 252.863,265.766 251.593,265.766 248.000 C 265.766 244.407,265.617 243.137,265.085 242.200 C 264.711 241.540,264.404 241.202,264.402 241.450 M188.446 244.439 C 187.799 246.296,187.895 250.481,188.621 252.054 L 189.242 253.400 189.011 252.000 C 188.883 251.230,188.674 249.947,188.546 249.148 C 188.418 248.349,188.516 246.748,188.765 245.590 C 189.282 243.180,189.106 242.546,188.446 244.439 M189.232 254.086 C 189.147 255.915,194.022 263.200,195.331 263.200 C 195.514 263.200,194.757 262.183,193.649 260.939 C 191.908 258.985,190.129 256.039,189.460 254.000 C 189.305 253.527,189.256 253.545,189.232 254.086 M263.685 256.173 C 263.015 257.644,263.078 257.952,263.830 256.879 C 264.176 256.384,264.395 255.784,264.315 255.544 C 264.235 255.305,263.952 255.588,263.685 256.173 M261.854 259.365 C 261.281 260.116,260.527 261.016,260.177 261.365 C 259.828 261.714,259.686 262.000,259.862 262.000 C 260.246 262.000,263.199 258.726,263.199 258.300 C 263.200 257.753,262.905 257.986,261.854 259.365 M258.895 262.666 C 258.618 262.778,258.203 263.259,257.973 263.735 C 257.616 264.476,257.633 264.514,258.096 264.000 C 258.393 263.670,258.889 263.175,259.198 262.900 C 259.787 262.376,259.729 262.331,258.895 262.666 M198.200 266.339 C 199.740 267.898,201.161 269.180,201.358 269.187 C 201.845 269.205,197.204 264.482,196.200 263.938 C 195.760 263.699,196.660 264.780,198.200 266.339 M252.723 268.880 C 251.030 270.596,249.775 272.000,249.933 272.000 C 250.322 272.000,256.203 266.058,255.978 265.892 C 255.880 265.820,254.415 267.165,252.723 268.880 M202.809 270.718 C 202.820 271.094,209.973 278.172,210.130 277.963 C 210.198 277.873,208.576 276.143,206.526 274.118 C 204.477 272.093,202.804 270.563,202.809 270.718 M247.695 273.866 C 247.418 273.978,247.003 274.459,246.773 274.935 C 246.416 275.676,246.433 275.714,246.896 275.200 C 247.193 274.870,247.689 274.375,247.998 274.100 C 248.587 273.576,248.529 273.531,247.695 273.866 M242.460 279.156 C 241.283 280.372,239.406 282.050,238.288 282.884 C 237.170 283.718,236.444 284.400,236.674 284.400 C 237.528 284.400,245.244 277.457,244.790 277.096 C 244.686 277.013,243.637 277.940,242.460 279.156 M211.117 279.208 C 211.594 279.653,212.347 280.406,212.792 280.883 C 213.236 281.361,213.600 281.621,213.600 281.462 C 213.600 281.303,212.976 280.549,212.213 279.787 C 211.451 279.024,210.697 278.400,210.538 278.400 C 210.379 278.400,210.639 278.764,211.117 279.208 M214.000 281.952 C 214.000 282.183,214.401 282.587,214.892 282.849 C 215.382 283.112,216.025 283.568,216.320 283.863 C 216.616 284.158,217.054 284.400,217.295 284.400 C 217.536 284.400,217.658 284.345,217.567 284.277 C 217.475 284.210,216.635 283.564,215.700 282.844 C 214.765 282.123,214.000 281.722,214.000 281.952 M218.576 284.970 C 219.004 285.317,219.724 285.585,220.176 285.566 C 220.837 285.538,220.789 285.467,219.931 285.209 C 219.344 285.031,218.624 284.763,218.331 284.613 C 218.039 284.463,218.149 284.624,218.576 284.970 M234.600 285.039 C 233.690 285.437,233.593 285.567,234.200 285.576 C 235.048 285.588,236.306 284.957,235.988 284.678 C 235.885 284.588,235.260 284.750,234.600 285.039 M221.776 286.167 C 223.160 287.294,234.192 286.858,233.055 285.722 C 232.914 285.581,232.383 285.688,231.875 285.960 C 230.860 286.503,223.211 286.425,221.800 285.857 C 221.012 285.539,221.011 285.544,221.776 286.167 " stroke="none" fill="#b04949" fill-rule="evenodd"></path><path id="path3" d="M102.262 90.700 C 102.160 90.865,142.182 91.000,191.200 91.000 C 240.218 91.000,280.240 90.865,280.138 90.700 C 280.036 90.535,240.014 90.400,191.200 90.400 C 142.386 90.400,102.364 90.535,102.262 90.700 M154.261 143.132 C 153.647 143.811,153.606 152.392,153.700 260.432 L 153.801 377.000 153.901 260.349 C 153.984 163.055,154.090 143.624,154.539 143.250 C 154.931 142.925,172.159 142.774,217.439 142.700 L 279.800 142.597 217.362 142.499 C 157.289 142.404,154.899 142.428,154.261 143.132 M207.995 220.700 L 201.400 227.400 208.100 220.805 C 214.325 214.677,214.981 214.000,214.695 214.000 C 214.638 214.000,211.623 217.015,207.995 220.700 M196.793 231.900 L 192.600 236.200 196.900 232.007 C 199.265 229.701,201.200 227.766,201.200 227.707 C 201.200 227.418,200.687 227.906,196.793 231.900 M265.293 246.000 C 265.293 246.770,265.375 247.085,265.476 246.700 C 265.576 246.315,265.576 245.685,265.476 245.300 C 265.375 244.915,265.293 245.230,265.293 246.000 M188.509 248.000 C 188.509 248.990,188.587 249.395,188.682 248.900 C 188.778 248.405,188.778 247.595,188.682 247.100 C 188.587 246.605,188.509 247.010,188.509 248.000 " stroke="none" fill="#b45c5c" fill-rule="evenodd"></path><path id="path4" d="M102.268 91.066 C 101.743 91.590,101.955 376.595,102.480 377.120 C 102.989 377.629,151.664 377.857,152.967 377.357 C 153.542 377.137,153.600 366.461,153.600 260.419 C 153.600 147.875,153.626 143.700,154.331 143.062 C 155.006 142.452,159.965 142.400,217.524 142.400 L 279.985 142.400 280.203 141.500 C 280.323 141.005,280.371 129.440,280.310 115.800 L 280.200 91.000 191.368 90.899 C 142.510 90.844,102.415 90.919,102.268 91.066 M280.000 116.353 L 280.000 141.507 279.100 141.748 C 278.605 141.881,250.165 141.992,215.900 141.995 C 181.635 141.998,153.556 142.045,153.502 142.100 C 153.448 142.155,153.313 195.030,153.202 259.600 L 153.000 377.000 127.800 377.000 L 102.600 377.000 102.498 234.600 C 102.441 156.280,102.481 91.975,102.585 91.700 C 102.736 91.302,120.865 91.200,191.387 91.200 L 280.000 91.200 280.000 116.353 M222.984 210.177 C 220.520 210.668,215.940 212.847,216.782 213.127 C 217.037 213.212,217.551 213.027,217.923 212.716 C 219.851 211.104,222.076 210.600,227.188 210.617 C 235.009 210.644,235.228 210.781,248.540 223.964 C 261.690 236.987,263.326 239.037,264.211 243.600 C 264.360 244.370,264.633 245.720,264.816 246.600 C 265.419 249.483,263.759 255.356,261.361 258.825 C 260.017 260.769,238.585 282.400,238.002 282.400 C 237.813 282.400,237.417 282.625,237.122 282.900 C 234.656 285.207,226.363 286.712,223.168 285.434 C 222.297 285.085,221.159 284.800,220.641 284.800 C 220.122 284.800,219.474 284.530,219.200 284.200 C 218.926 283.870,218.469 283.600,218.185 283.600 C 217.313 283.600,215.806 282.199,203.980 270.400 C 190.008 256.460,189.923 256.330,189.593 248.400 C 189.395 243.621,189.370 243.505,189.036 245.783 C 188.539 249.176,189.323 253.805,190.923 256.917 C 192.307 259.610,210.718 278.747,215.200 282.152 C 221.834 287.191,229.745 287.769,236.798 283.729 C 239.399 282.239,260.899 260.743,262.539 257.992 C 266.238 251.789,266.238 244.423,262.538 238.037 C 261.331 235.954,241.681 215.917,238.556 213.584 C 234.038 210.210,228.690 209.040,222.984 210.177 M203.901 225.115 C 191.921 237.117,189.575 240.000,189.609 242.678 C 189.614 243.096,189.881 242.810,190.242 242.000 C 192.193 237.617,192.934 236.737,204.321 225.291 C 210.767 218.810,215.979 213.446,215.903 213.370 C 215.827 213.293,210.426 218.579,203.901 225.115 " stroke="none" fill="#bc7c7c" fill-rule="evenodd"></path></g></svg>